<svg width="36" height="36" viewBox="0 0 36 36" fill="none" xmlns="http://www.w3.org/2000/svg">
<path
d="M18.0156 3.24156C22.8156 3.24156 23.4078 3.27273 25.2779 3.33506C27.0234 3.42857 27.9896 3.70909 28.613 3.95844C29.4545 4.27013 30.0468 4.67532 30.6701 5.2987C31.2935 5.92208 31.6987 6.51429 32.0104 7.35584C32.2597 7.97922 32.5403 8.94545 32.6338 10.6909C32.7273 12.5922 32.7273 13.1532 32.7273 17.9532C32.7273 22.7532 32.6961 23.3455 32.6338 25.2156C32.5403 26.961 32.2597 27.9273 32.0104 28.5506C31.6987 29.3922 31.2935 29.9844 30.6701 30.6078C30.0468 31.2312 29.4545 31.6364 28.613 31.9481C27.9896 32.1974 27.0234 32.4779 25.2779 32.5714C23.3766 32.6649 22.8156 32.6649 18.0156 32.6649C13.2156 32.6649 12.6234 32.6338 10.7532 32.5714C9.00779 32.4779 8.04156 32.1974 7.41818 31.9481C6.57662 31.6364 5.98442 31.2312 5.36104 30.6078C4.73766 29.9844 4.33247 29.3922 4.02078 28.5506C3.77143 27.9273 3.49091 26.961 3.3974 25.2156C3.3039 23.3143 3.3039 22.7532 3.3039 17.9532C3.3039 13.1532 3.33507 12.561 3.3974 10.6909C3.49091 8.94545 3.77143 7.97922 4.02078 7.35584C4.33247 6.51429 4.73766 5.92208 5.36104 5.2987C5.98442 4.67532 6.57662 4.27013 7.41818 3.95844C8.04156 3.70909 9.00779 3.42857 10.7532 3.33506C12.6234 3.27273 13.2156 3.24156 18.0156 3.24156ZM18.0156 0C13.1221 0 12.4987 0.0311688 10.5974 0.0935065C8.69611 0.187013 7.38701 0.498701 6.23377 0.935065C5.04935 1.4026 4.05195 2.02597 3.05455 3.02338C2.02597 4.02078 1.4026 5.01818 0.935065 6.2026C0.498701 7.35584 0.187013 8.66494 0.0935065 10.5662C0.0311688 12.4987 0 13.1221 0 18.0156C0 22.9091 0.0311688 23.5325 0.0935065 25.4338C0.187013 27.3351 0.498701 28.6442 0.935065 29.7974C1.4026 30.9818 2.02597 31.9792 3.02338 32.9766C4.02078 33.974 5.01818 34.5974 6.2026 35.0649C7.35584 35.5013 8.66494 35.813 10.5662 35.9065C12.4987 36 13.0909 36 17.9844 36C22.8779 36 23.5013 35.9688 25.4026 35.9065C27.3039 35.813 28.613 35.5013 29.7662 35.0649C30.9507 34.5974 31.9481 33.974 32.9455 32.9766C33.9429 31.9792 34.5662 30.9818 35.0338 29.7974C35.4701 28.6442 35.7818 27.3351 35.8753 25.4338C35.9688 23.5013 35.9688 22.9091 35.9688 18.0156C35.9688 13.1221 35.9377 12.4987 35.8753 10.5974C35.7818 8.6961 35.4701 7.38701 35.0338 6.23377C34.5662 5.04935 33.9429 4.05195 32.9455 3.05455C31.9481 2.05714 30.9507 1.43377 29.7662 0.966234C28.613 0.52987 27.3039 0.218182 25.4026 0.124675C23.5013 0.0311688 22.9091 0 18.0156 0Z" fill="white"/>
</svg>
