<svg class={Astro.props.class}
    xmlns="http://www.w3.org/2000/svg" width="352" height="400" fill="none"><g fill="#333" clip-path="url(#a)" filter="url(#b)"><path d="M166.572 32h2.926l.158 9.7h2.614l-.057 2.765-5.764-.006.12-12.459h.003Zm10.77 3.827-1.233 8.638-2.973-.008L175.409 32c1.342.016 2.685.035 4.027.052.732 4.088 1.508 8.322 2.241 12.407l-3.052-.005-1.28-8.63-.003.003Zm-16.049 17.156-.314 42.823 7.215-.576-.158 6.447-16.313 2.044.836-50.58 8.731-.158h.003Zm-14.172.42-.125 6.938-7.928.557-.158 15.724 6.902-.945-.104 6.816-7.005 1.31-.209 16.406 8.05-1.993-.209 6.919c-5.691 1.526-11.321 3.221-16.837 5.295l.681-41.723.365-14.728 16.575-.576h.002Zm-21.07.945-7.059 60.697-11.242 6.133L102 56.024l8.783-.735 2.614 49.742 3.817-50.214 8.837-.472v.003Zm75.03-1.258c8.57-.055 16.485-.47 19.501 5.294 1.688 3.224 1.83 9.684 1.83 13.524.139 6.97.278 13.944.419 20.915.395 5.022.077 10.691-2.613 12.842-3.379 2.702-13.752-1.1-18.509-2.148-.209-16.808-.419-33.618-.626-50.425l-.002-.002Zm8.992 7.18.575 38.421c1.132.24 2.646.833 3.188-.366.808-1.793.158-6.528.158-8.91-.123-6.745-.245-13.49-.365-20.233-.003-2.83.509-7.632-1.413-8.598l-2.143-.314Zm-28.965 41.041c-3.085.017-6.17.036-9.254.052l6.117-48.587c4.217.035 8.435.07 12.652.103l6.537 49.901-9.202-1.1-3.556-37.163-3.294 36.794Zm54.481 13.576-8.731-3.93 4.966-56.503 12.548.838L250 121.175l-7.928-2.931-3.869-48.536-2.614 45.182v-.003Zm-37.659-7.694c.689.049 1.299.063 1.988.109.425 1.539-.226 3.256-1.405 3.535-1.691.398-3.694-.882-3.885.038l-1.96-.036c-.46-1.951.759-4.219 3.359-3.51.678.107 1.465.598 1.906-.136h-.003Zm-15.317 10.415-1.644 18.311-4.359-.15 2.823-23.876 6.126.054 3.376 25.138-4.4-.847-1.922-18.627v-.003Zm-18.268-5.56-.284 21.609 3.54-.437.022 3.065c-1.367.237-2.739.442-4.101.715l-3.765.756.373-25.538 4.215-.17Zm26.537.156 4.214.096 3.088 15.6-.406-15.308 3.931.06.455 28.237-4.141-1.616-3.158-14.708.509 13.928-4.035-1.059-.457-25.23Zm-33.613.147-.033 3.317-3.874.171-.156 8.456 3.472-.609-.019 3.434-3.461.614c-.032 2.71-.079 5.871-.111 8.578l4.032-1.22c-.066 1.122-.068 2.317-.134 3.442-2.741.922-5.624 1.951-8.298 3.062.161-9.441.348-19.359.509-28.8l8.073-.447v.002Zm52.919 28.486c.31 0 .746.09.746-1.217 0-7.061-.292-14.143-.292-21.008 0-.93-.561-1.359-.961-1.359-.55 0-1.124.363-1.124 1.305 0 4.285.517 16.903.517 21.106 0 .647.882 1.173 1.116 1.173h-.002Zm-1.441-27.648c4.585-.046 5.895 3.235 6.053 7.17v3.472l.049 10.726c0 3.655.955 10.325-2.208 10.918-1.65.308-4.062-1.671-4.798-2.454-.884-.945-1.764-1.987-2.254-3.319-1.239-1.67-1.759-22.26-.245-24.253.697-1.392 1.25-1.992 3.403-2.26Zm-67.487.126c1.704-.019 2.924.352 3.645 1.299 1.416.579 1.285 6.518 1.157 12.795-.239 11.758 1.256 14.921-8.067 19.927-.416.262-1.671 1.01-1.965 1.154.032-11.348.065-23.248.095-34.597l5.135-.575v-.003Zm-.912 4.921c-.079 7.806-.161 15.614-.24 23.423 1.974-.265 1.68-2.97 1.68-5.194l.144-13.322c0-1.277.686-5.59-1.584-4.904v-.003Z"/><path fill-rule="evenodd" d="m183.144 142.115-.631.969a4.404 4.404 0 0 0-.654 1.67l-1.633 9.596a.715.715 0 0 0 .196.625.98.98 0 0 0 .656.29l-3.526 1.4a.037.037 0 0 1-.049-.025l-3.166-10.046-.376.185a.545.545 0 0 0-.3.491l.137 9.894a.612.612 0 0 0 .658.606l.126-.008c.041-.003.051.052.016.068l-5.429 2.165c-.046.019-.087-.041-.052-.077l.338-.352a3.977 3.977 0 0 0 1.1-2.756l-.025-8.579a1.3 1.3 0 0 0-.699-1.154l-.948-.5c-.043-.022-.038-.084.008-.101l4.741-1.506-.398-.852c-.016-.033.011-.071.049-.068l3.087.404a.18.18 0 0 1 .153.134l1.854 6.921.735-6.157a.931.931 0 0 0-.514-.945l-.616-.3c-.087-.041-.079-.169.011-.202l5.113-1.842c.03-.011.057.022.038.049v.003Z" clip-rule="evenodd"/></g><defs><clipPath id="a"><path fill="#fff" d="M102 32h148v128H102z"/></clipPath><filter id="b" width="628" height="608" x="-138" y="-208" color-interpolation-filters="sRGB" filterUnits="userSpaceOnUse"><feFlood flood-opacity="0" result="BackgroundImageFix"/><feColorMatrix in="SourceAlpha" result="hardAlpha" values="0 0 0 0 0 0 0 0 0 0 0 0 0 0 0 0 0 0 127 0"/><feOffset/><feGaussianBlur stdDeviation="120"/><feColorMatrix values="0 0 0 0 1 0 0 0 0 1 0 0 0 0 1 0 0 0 0.5 0"/><feBlend in2="BackgroundImageFix" result="effect1_dropShadow_293_4258"/><feColorMatrix in="SourceAlpha" result="hardAlpha" values="0 0 0 0 0 0 0 0 0 0 0 0 0 0 0 0 0 0 127 0"/><feOffset/><feGaussianBlur stdDeviation="30"/><feColorMatrix values="0 0 0 0 1 0 0 0 0 1 0 0 0 0 1 0 0 0 0.5 0"/><feBlend in2="effect1_dropShadow_293_4258" result="effect2_dropShadow_293_4258"/><feBlend in="SourceGraphic" in2="effect2_dropShadow_293_4258" result="shape"/></filter></defs></svg>